<svg xmlns="http://www.w3.org/2000/svg" xmlns:xlink="http://www.w3.org/1999/xlink" width="1080" zoomAndPan="magnify" viewBox="0 0 810 809.999993" height="1080" preserveAspectRatio="xMidYMid meet" version="1.0"><defs><clipPath id="16ac0ed0bc"><path d="M 16.558594 16.558594 L 793.558594 16.558594 L 793.558594 793.558594 L 16.558594 793.558594 Z M 16.558594 16.558594 " clip-rule="nonzero"/></clipPath></defs><g clip-path="url(#16ac0ed0bc)"><path fill="#ffffff" d="M 288.464844 16.558594 L 94.246094 16.558594 C 51.398438 16.558594 16.558594 51.398438 16.558594 94.246094 L 16.558594 366.15625 C 16.558594 409 51.398438 443.84375 94.246094 443.84375 L 288.464844 443.84375 C 331.3125 443.84375 366.15625 409 366.15625 366.15625 L 366.15625 94.246094 C 366.15625 51.398438 331.3125 16.558594 288.464844 16.558594 Z M 715.75 16.558594 L 521.53125 16.558594 C 478.6875 16.558594 443.84375 51.398438 443.84375 94.246094 L 443.84375 210.777344 C 443.84375 253.621094 478.6875 288.464844 521.53125 288.464844 L 715.75 288.464844 C 758.597656 288.464844 793.441406 253.621094 793.441406 210.777344 L 793.441406 94.246094 C 793.441406 51.398438 758.597656 16.558594 715.75 16.558594 Z M 288.464844 521.53125 L 94.246094 521.53125 C 51.398438 521.53125 16.558594 556.375 16.558594 599.21875 L 16.558594 715.75 C 16.558594 758.597656 51.398438 793.441406 94.246094 793.441406 L 288.464844 793.441406 C 331.3125 793.441406 366.15625 758.597656 366.15625 715.75 L 366.15625 599.21875 C 366.15625 556.375 331.3125 521.53125 288.464844 521.53125 Z M 715.75 366.15625 L 521.53125 366.15625 C 478.6875 366.15625 443.84375 400.996094 443.84375 443.84375 L 443.84375 715.75 C 443.84375 758.597656 478.6875 793.441406 521.53125 793.441406 L 715.75 793.441406 C 758.597656 793.441406 793.441406 758.597656 793.441406 715.75 L 793.441406 443.84375 C 793.441406 400.996094 758.597656 366.15625 715.75 366.15625 Z M 715.75 366.15625 " fill-opacity="1" fill-rule="nonzero"/></g></svg>