<svg xmlns="http://www.w3.org/2000/svg" xmlns:xlink="http://www.w3.org/1999/xlink" width="1080" zoomAndPan="magnify" viewBox="0 0 810 809.999993" height="1080" preserveAspectRatio="xMidYMid meet" version="1.0"><defs><clipPath id="063b62a487"><path d="M 138 27.070312 L 748.554688 27.070312 L 748.554688 612 L 138 612 Z M 138 27.070312 " clip-rule="nonzero"/></clipPath><clipPath id="dc6bab466a"><path d="M 61.554688 27.070312 L 302 27.070312 L 302 783 L 61.554688 783 Z M 61.554688 27.070312 " clip-rule="nonzero"/></clipPath></defs><g clip-path="url(#063b62a487)"><path fill="#ffffff" d="M 743.285156 307.117188 L 674.597656 238.429688 C 674.203125 238.042969 673.789062 237.675781 673.359375 237.328125 C 672.929688 236.980469 672.480469 236.65625 672.019531 236.351562 C 671.554688 236.050781 671.078125 235.769531 670.589844 235.511719 C 670.097656 235.257812 669.597656 235.023438 669.085938 234.816406 C 668.574219 234.609375 668.050781 234.425781 667.519531 234.269531 C 666.992188 234.113281 666.453125 233.980469 665.910156 233.875 C 665.367188 233.773438 664.820312 233.695312 664.269531 233.644531 C 663.71875 233.59375 663.167969 233.566406 662.613281 233.570312 C 662.058594 233.574219 661.507812 233.605469 660.957031 233.660156 C 660.40625 233.71875 659.859375 233.800781 659.320312 233.910156 C 658.777344 234.019531 658.242188 234.15625 657.710938 234.320312 C 657.183594 234.480469 656.664062 234.667969 656.152344 234.882812 C 655.644531 235.09375 655.144531 235.332031 654.65625 235.59375 C 654.167969 235.855469 653.695312 236.140625 653.234375 236.449219 C 652.777344 236.753906 652.332031 237.085938 651.90625 237.4375 C 651.476562 237.789062 651.070312 238.160156 650.675781 238.550781 C 650.285156 238.941406 649.914062 239.351562 649.5625 239.777344 C 649.210938 240.207031 648.882812 240.648438 648.574219 241.109375 C 648.265625 241.566406 647.984375 242.042969 647.722656 242.527344 C 647.460938 243.015625 647.222656 243.515625 647.007812 244.027344 C 646.796875 244.535156 646.609375 245.054688 646.445312 245.585938 C 646.285156 246.113281 646.148438 246.648438 646.039062 247.191406 C 645.929688 247.734375 645.84375 248.28125 645.789062 248.832031 C 645.730469 249.378906 645.703125 249.933594 645.699219 250.484375 C 645.695312 251.039062 645.71875 251.589844 645.769531 252.140625 C 645.820312 252.691406 645.898438 253.238281 646.003906 253.78125 C 646.109375 254.324219 646.238281 254.863281 646.398438 255.394531 C 646.554688 255.921875 646.734375 256.445312 646.945312 256.957031 C 647.152344 257.46875 647.382812 257.972656 647.640625 258.460938 C 647.898438 258.953125 648.175781 259.429688 648.480469 259.890625 C 648.785156 260.355469 649.109375 260.800781 649.457031 261.230469 C 649.804688 261.664062 650.167969 262.074219 650.558594 262.46875 L 689.710938 301.964844 L 576.71875 301.964844 L 576.71875 44.386719 C 576.722656 43.820312 576.699219 43.257812 576.648438 42.695312 C 576.597656 42.136719 576.519531 41.578125 576.414062 41.023438 C 576.308594 40.46875 576.175781 39.921875 576.015625 39.382812 C 575.855469 38.839844 575.667969 38.308594 575.457031 37.789062 C 575.242188 37.265625 575.003906 36.753906 574.738281 36.257812 C 574.476562 35.757812 574.1875 35.273438 573.875 34.804688 C 573.5625 34.335938 573.230469 33.882812 572.871094 33.445312 C 572.515625 33.007812 572.136719 32.589844 571.738281 32.191406 C 571.339844 31.792969 570.921875 31.414062 570.484375 31.058594 C 570.046875 30.703125 569.59375 30.367188 569.125 30.054688 C 568.65625 29.742188 568.171875 29.453125 567.671875 29.191406 C 567.175781 28.925781 566.664062 28.6875 566.144531 28.472656 C 565.621094 28.261719 565.089844 28.074219 564.550781 27.914062 C 564.007812 27.753906 563.460938 27.621094 562.90625 27.515625 C 562.351562 27.410156 561.796875 27.332031 561.234375 27.28125 C 560.671875 27.230469 560.109375 27.207031 559.546875 27.214844 L 138.828125 27.214844 L 317.761719 176.609375 C 319.210938 177.808594 320.589844 179.082031 321.902344 180.429688 C 323.210938 181.78125 324.441406 183.199219 325.59375 184.683594 C 326.746094 186.171875 327.8125 187.714844 328.792969 189.320312 C 329.777344 190.921875 330.667969 192.574219 331.464844 194.277344 C 332.265625 195.980469 332.96875 197.71875 333.574219 199.5 C 334.183594 201.28125 334.6875 203.085938 335.097656 204.921875 C 335.503906 206.757812 335.808594 208.613281 336.011719 210.480469 C 336.214844 212.351562 336.3125 214.226562 336.308594 216.105469 L 336.308594 611.0625 L 559.546875 611.0625 C 560.109375 611.070312 560.671875 611.046875 561.234375 610.996094 C 561.796875 610.945312 562.351562 610.867188 562.90625 610.761719 C 563.460938 610.65625 564.007812 610.523438 564.550781 610.363281 C 565.089844 610.203125 565.621094 610.015625 566.144531 609.800781 C 566.664062 609.589844 567.175781 609.351562 567.671875 609.085938 C 568.171875 608.824219 568.65625 608.535156 569.125 608.222656 C 569.59375 607.910156 570.046875 607.574219 570.484375 607.21875 C 570.921875 606.859375 571.339844 606.484375 571.738281 606.085938 C 572.136719 605.683594 572.515625 605.269531 572.871094 604.832031 C 573.230469 604.394531 573.5625 603.941406 573.875 603.472656 C 574.1875 603.003906 574.476562 602.519531 574.738281 602.019531 C 575.003906 601.523438 575.242188 601.011719 575.457031 600.488281 C 575.667969 599.96875 575.855469 599.4375 576.015625 598.894531 C 576.175781 598.355469 576.308594 597.808594 576.414062 597.253906 C 576.519531 596.699219 576.597656 596.140625 576.648438 595.578125 C 576.699219 595.019531 576.722656 594.457031 576.71875 593.890625 L 576.71875 370.65625 L 456.511719 370.65625 C 455.949219 370.65625 455.390625 370.625 454.828125 370.570312 C 454.269531 370.515625 453.714844 370.433594 453.164062 370.324219 C 452.609375 370.214844 452.066406 370.078125 451.527344 369.914062 C 450.988281 369.75 450.460938 369.5625 449.941406 369.347656 C 449.421875 369.132812 448.914062 368.890625 448.417969 368.625 C 447.921875 368.363281 447.441406 368.074219 446.972656 367.761719 C 446.503906 367.449219 446.054688 367.113281 445.617188 366.757812 C 445.183594 366.398438 444.769531 366.023438 444.371094 365.625 C 443.972656 365.226562 443.59375 364.8125 443.238281 364.375 C 442.882812 363.941406 442.546875 363.492188 442.234375 363.023438 C 441.921875 362.554688 441.632812 362.074219 441.367188 361.578125 C 441.101562 361.082031 440.863281 360.574219 440.648438 360.054688 C 440.433594 359.535156 440.242188 359.003906 440.078125 358.46875 C 439.917969 357.929688 439.78125 357.382812 439.671875 356.832031 C 439.5625 356.28125 439.476562 355.726562 439.421875 355.164062 C 439.367188 354.605469 439.339844 354.042969 439.339844 353.480469 C 439.339844 352.921875 439.367188 352.359375 439.421875 351.800781 C 439.476562 351.238281 439.5625 350.683594 439.671875 350.132812 C 439.78125 349.582031 439.917969 349.035156 440.078125 348.496094 C 440.242188 347.960938 440.433594 347.429688 440.648438 346.910156 C 440.863281 346.390625 441.101562 345.882812 441.367188 345.386719 C 441.632812 344.890625 441.921875 344.410156 442.234375 343.941406 C 442.546875 343.472656 442.882812 343.023438 443.238281 342.589844 C 443.59375 342.152344 443.972656 341.738281 444.371094 341.339844 C 444.769531 340.941406 445.183594 340.566406 445.617188 340.207031 C 446.054688 339.851562 446.503906 339.515625 446.972656 339.203125 C 447.441406 338.890625 447.921875 338.601562 448.417969 338.339844 C 448.914062 338.074219 449.421875 337.832031 449.941406 337.617188 C 450.460938 337.402344 450.988281 337.214844 451.527344 337.050781 C 452.066406 336.886719 452.609375 336.75 453.164062 336.640625 C 453.714844 336.53125 454.269531 336.449219 454.828125 336.394531 C 455.390625 336.339844 455.949219 336.308594 456.511719 336.308594 L 689.710938 336.308594 L 650.558594 375.804688 C 650.171875 376.199219 649.804688 376.613281 649.457031 377.046875 C 649.109375 377.476562 648.785156 377.921875 648.480469 378.386719 C 648.175781 378.847656 647.898438 379.324219 647.640625 379.816406 C 647.382812 380.304688 647.152344 380.804688 646.945312 381.320312 C 646.734375 381.832031 646.554688 382.351562 646.398438 382.882812 C 646.238281 383.414062 646.109375 383.949219 646.003906 384.492188 C 645.898438 385.035156 645.820312 385.585938 645.769531 386.136719 C 645.71875 386.6875 645.695312 387.238281 645.699219 387.789062 C 645.703125 388.34375 645.730469 388.894531 645.789062 389.445312 C 645.84375 389.996094 645.925781 390.542969 646.039062 391.085938 C 646.148438 391.628906 646.285156 392.164062 646.445312 392.691406 C 646.609375 393.21875 646.796875 393.738281 647.007812 394.25 C 647.222656 394.761719 647.460938 395.261719 647.722656 395.746094 C 647.984375 396.234375 648.265625 396.707031 648.574219 397.167969 C 648.882812 397.628906 649.210938 398.070312 649.5625 398.5 C 649.914062 398.925781 650.285156 399.335938 650.675781 399.726562 C 651.070312 400.117188 651.476562 400.488281 651.90625 400.839844 C 652.332031 401.191406 652.777344 401.519531 653.234375 401.828125 C 653.695312 402.136719 654.167969 402.421875 654.65625 402.683594 C 655.144531 402.945312 655.644531 403.183594 656.152344 403.394531 C 656.664062 403.609375 657.183594 403.796875 657.710938 403.957031 C 658.242188 404.121094 658.777344 404.257812 659.320312 404.367188 C 659.859375 404.476562 660.40625 404.558594 660.957031 404.617188 C 661.507812 404.671875 662.058594 404.703125 662.613281 404.707031 C 663.167969 404.707031 663.71875 404.683594 664.269531 404.632812 C 664.820312 404.582031 665.367188 404.503906 665.910156 404.398438 C 666.453125 404.296875 666.992188 404.164062 667.519531 404.007812 C 668.050781 403.851562 668.574219 403.667969 669.085938 403.460938 C 669.597656 403.253906 670.097656 403.019531 670.589844 402.761719 C 671.078125 402.507812 671.554688 402.226562 672.019531 401.921875 C 672.480469 401.621094 672.929688 401.296875 673.359375 400.949219 C 673.789062 400.601562 674.203125 400.234375 674.597656 399.847656 L 743.285156 331.160156 C 743.691406 330.773438 744.078125 330.367188 744.441406 329.941406 C 744.808594 329.515625 745.148438 329.070312 745.46875 328.613281 C 745.789062 328.152344 746.085938 327.675781 746.355469 327.183594 C 746.628906 326.695312 746.875 326.191406 747.097656 325.675781 C 747.316406 325.160156 747.511719 324.636719 747.679688 324.101562 C 747.847656 323.566406 747.988281 323.023438 748.097656 322.476562 C 748.210938 321.925781 748.296875 321.375 748.351562 320.816406 C 748.410156 320.257812 748.4375 319.699219 748.4375 319.136719 C 748.4375 318.578125 748.410156 318.019531 748.351562 317.460938 C 748.296875 316.902344 748.210938 316.347656 748.097656 315.800781 C 747.988281 315.25 747.847656 314.710938 747.679688 314.175781 C 747.511719 313.640625 747.316406 313.113281 747.097656 312.597656 C 746.875 312.082031 746.628906 311.582031 746.355469 311.089844 C 746.085938 310.601562 745.789062 310.125 745.46875 309.664062 C 745.148438 309.203125 744.808594 308.761719 744.441406 308.335938 C 744.078125 307.910156 743.691406 307.503906 743.285156 307.117188 Z M 743.285156 307.117188 " fill-opacity="1" fill-rule="nonzero"/></g><g clip-path="url(#dc6bab466a)"><path fill="#ffffff" d="M 89.71875 31.203125 C 89.09375 30.683594 88.4375 30.210938 87.746094 29.785156 C 87.054688 29.359375 86.339844 28.984375 85.59375 28.660156 C 84.851562 28.335938 84.089844 28.0625 83.304688 27.847656 C 82.523438 27.632812 81.730469 27.472656 80.925781 27.367188 C 80.121094 27.265625 79.3125 27.21875 78.5 27.226562 C 77.691406 27.238281 76.882812 27.304688 76.082031 27.429688 C 75.28125 27.554688 74.492188 27.738281 73.714844 27.972656 C 72.9375 28.210938 72.183594 28.5 71.449219 28.84375 C 70.710938 29.191406 70.003906 29.582031 69.328125 30.027344 C 68.648438 30.472656 68.003906 30.960938 67.394531 31.496094 C 66.785156 32.035156 66.214844 32.609375 65.6875 33.226562 C 65.160156 33.839844 64.675781 34.492188 64.242188 35.175781 C 63.804688 35.859375 63.421875 36.574219 63.085938 37.3125 C 62.75 38.050781 62.46875 38.808594 62.242188 39.589844 C 62.015625 40.367188 61.84375 41.160156 61.730469 41.964844 C 61.613281 42.765625 61.554688 43.574219 61.554688 44.386719 L 61.554688 593.890625 C 61.554688 595.148438 61.691406 596.390625 61.964844 597.621094 C 62.238281 598.847656 62.644531 600.03125 63.179688 601.171875 C 63.710938 602.308594 64.363281 603.375 65.132812 604.371094 C 65.902344 605.367188 66.769531 606.269531 67.738281 607.074219 L 273.800781 778.792969 C 275.339844 780.085938 277.054688 781.074219 278.945312 781.757812 C 280.832031 782.445312 282.78125 782.785156 284.792969 782.785156 C 285.355469 782.785156 285.914062 782.757812 286.476562 782.703125 C 287.035156 782.648438 287.589844 782.566406 288.144531 782.457031 C 288.695312 782.347656 289.242188 782.210938 289.777344 782.050781 C 290.316406 781.886719 290.847656 781.699219 291.367188 781.484375 C 291.886719 781.269531 292.394531 781.027344 292.890625 780.761719 C 293.386719 780.496094 293.871094 780.210938 294.335938 779.898438 C 294.804688 779.585938 295.257812 779.25 295.691406 778.894531 C 296.125 778.535156 296.542969 778.160156 296.941406 777.761719 C 297.339844 777.363281 297.714844 776.945312 298.074219 776.511719 C 298.429688 776.078125 298.765625 775.625 299.078125 775.15625 C 299.390625 774.691406 299.675781 774.207031 299.941406 773.710938 C 300.207031 773.214844 300.449219 772.707031 300.664062 772.1875 C 300.878906 771.667969 301.066406 771.136719 301.230469 770.597656 C 301.390625 770.0625 301.527344 769.515625 301.636719 768.964844 C 301.746094 768.410156 301.828125 767.855469 301.882812 767.296875 C 301.9375 766.734375 301.964844 766.175781 301.964844 765.613281 L 301.964844 216.105469 C 301.964844 214.847656 301.828125 213.605469 301.554688 212.375 C 301.28125 211.148438 300.875 209.964844 300.339844 208.828125 C 299.808594 207.6875 299.15625 206.621094 298.386719 205.625 C 297.617188 204.628906 296.75 203.730469 295.78125 202.925781 Z M 89.71875 31.203125 " fill-opacity="1" fill-rule="nonzero"/></g></svg>