<svg xmlns="http://www.w3.org/2000/svg" xmlns:xlink="http://www.w3.org/1999/xlink" width="1080" zoomAndPan="magnify" viewBox="0 0 810 809.999993" height="1080" preserveAspectRatio="xMidYMid meet" version="1.0"><path fill="#e8e8e8" d="M 404.996094 744.242188 C 378.09375 744.242188 353.867188 728.339844 343.015625 703.667969 L 312.101562 717.191406 C 328.300781 754.050781 364.714844 777.980469 404.996094 777.980469 C 445.867188 777.980469 482.429688 753.753906 498.332031 716.152344 L 467.269531 702.921875 C 456.570312 728.042969 432.195312 744.242188 404.996094 744.242188 Z M 404.996094 744.242188 " fill-opacity="1" fill-rule="nonzero"/><path fill="#e8e8e8" d="M 736.734375 629.945312 L 647.558594 555.632812 C 643.691406 552.363281 641.464844 547.753906 641.464844 542.699219 L 641.464844 338.78125 C 641.464844 273.535156 615.453125 212.746094 568.1875 167.710938 C 540.394531 141.253906 507.398438 122.527344 471.730469 112.121094 C 472.472656 106.921875 472.769531 101.71875 472.324219 96.21875 C 469.796875 67.386719 448.542969 42.863281 420.601562 36.621094 C 400.089844 32.011719 378.984375 36.769531 362.785156 49.699219 C 346.730469 62.628906 337.515625 81.800781 337.515625 102.460938 C 337.515625 105.878906 338.113281 109 338.558594 112.269531 C 239.867188 141.699219 168.527344 234.742188 168.527344 345.023438 L 168.527344 542.550781 C 168.527344 547.605469 166.296875 552.363281 162.433594 555.484375 L 73.253906 629.796875 C 69.390625 633.066406 67.160156 637.824219 67.160156 642.726562 L 67.160156 659.671875 C 67.160156 669.035156 74.742188 676.617188 84.105469 676.617188 L 725.882812 676.617188 C 735.246094 676.617188 742.828125 669.035156 742.828125 659.671875 L 742.828125 642.726562 C 742.679688 637.824219 740.449219 633.066406 736.734375 629.945312 Z M 371.105469 102.460938 C 371.105469 92.058594 375.714844 82.546875 383.742188 76.007812 C 391.914062 69.464844 402.171875 67.089844 413.019531 69.464844 C 426.546875 72.585938 437.246094 84.921875 438.585938 99.042969 C 438.734375 100.976562 438.4375 102.90625 438.289062 104.839844 C 423.574219 102.757812 408.710938 102.015625 393.402344 102.609375 C 385.96875 102.90625 378.539062 103.652344 371.253906 104.839844 C 371.40625 103.949219 371.105469 103.207031 371.105469 102.460938 Z M 110.410156 642.875 L 183.984375 581.492188 C 195.578125 571.832031 202.265625 557.710938 202.265625 542.550781 L 202.265625 345.023438 C 202.265625 233.105469 286.984375 141.402344 395.183594 136.347656 C 451.367188 133.675781 504.425781 153.589844 544.855469 192.085938 C 585.28125 230.730469 607.574219 282.75 607.574219 338.78125 L 607.574219 542.550781 C 607.574219 557.5625 614.265625 571.832031 625.855469 581.492188 L 699.429688 642.875 Z M 110.410156 642.875 " fill-opacity="1" fill-rule="nonzero"/></svg>