<svg xmlns="http://www.w3.org/2000/svg" xmlns:xlink="http://www.w3.org/1999/xlink" width="1080" zoomAndPan="magnify" viewBox="0 0 810 809.999993" height="1080" preserveAspectRatio="xMidYMid meet" version="1.0"><defs><clipPath id="8ab1d28f30"><path d="M 24.011719 24.011719 L 785.445312 24.011719 L 785.445312 785.988281 L 24.011719 785.988281 Z M 24.011719 24.011719 " clip-rule="nonzero"/></clipPath></defs><g clip-path="url(#8ab1d28f30)"><path fill="#ffffff" d="M 402.359375 260.097656 C 481.574219 258.609375 546.921875 321.65625 548.410156 400.871094 C 548.410156 402.292969 548.410156 403.644531 548.410156 405.066406 C 549.289062 484.28125 485.835938 549.222656 406.621094 550.101562 C 327.40625 550.980469 262.46875 487.527344 261.585938 408.3125 C 261.585938 407.230469 261.585938 406.148438 261.585938 405.066406 C 260.707031 326.257812 323.550781 261.519531 402.359375 260.097656 Z M 417.71875 24.347656 C 396.339844 23.605469 374.894531 24.6875 353.722656 27.527344 C 346.214844 28.542969 340.058594 33.820312 337.824219 40.992188 L 316.71875 109.71875 C 314.894531 115.539062 310.429688 120.207031 304.679688 122.234375 C 294.734375 125.820312 284.992188 129.8125 275.457031 134.34375 C 269.90625 137.050781 263.414062 136.914062 258.003906 134.003906 L 194.550781 100.316406 C 187.851562 96.800781 179.734375 97.476562 173.78125 102.074219 C 146.585938 122.707031 122.371094 146.992188 101.667969 174.121094 C 97.070312 180.140625 96.394531 188.191406 99.910156 194.886719 L 133.667969 258.40625 C 136.574219 263.753906 136.847656 270.246094 134.34375 275.792969 C 129.742188 285.332031 125.683594 295.074219 122.167969 305.015625 C 120.136719 310.835938 115.46875 315.300781 109.585938 317.058594 L 40.921875 338.230469 C 33.683594 340.394531 28.40625 346.621094 27.460938 354.0625 C 22.859375 387.953125 22.859375 422.183594 27.460938 456.074219 C 28.40625 463.515625 33.683594 469.738281 40.921875 471.902344 L 109.585938 493.074219 C 115.46875 494.835938 120.136719 499.300781 122.167969 505.117188 C 125.683594 515.0625 129.742188 524.800781 134.34375 534.339844 C 136.847656 539.886719 136.574219 546.382812 133.667969 551.726562 L 99.910156 615.246094 C 96.394531 621.875 97.070312 629.992188 101.667969 636.015625 C 122.371094 663.140625 146.585938 687.359375 173.78125 708.058594 C 179.734375 712.65625 187.851562 713.265625 194.550781 709.816406 L 258.003906 676.128906 C 263.414062 673.21875 269.90625 673.085938 275.457031 675.722656 C 284.992188 680.253906 294.734375 684.3125 304.679688 687.832031 C 310.429688 689.859375 314.894531 694.527344 316.71875 700.347656 L 337.824219 769.074219 C 340.058594 776.3125 346.214844 781.589844 353.722656 782.539062 C 387.546875 787.136719 421.84375 787.136719 455.667969 782.539062 C 463.109375 781.589844 469.332031 776.3125 471.5625 769.074219 L 492.667969 700.347656 C 494.496094 694.527344 498.960938 689.859375 504.710938 687.832031 C 514.65625 684.3125 524.464844 680.253906 533.933594 675.722656 C 539.480469 673.085938 545.90625 673.21875 551.320312 676.128906 L 614.839844 709.816406 C 621.539062 713.265625 629.65625 712.65625 635.609375 708.058594 C 662.800781 687.359375 687.019531 663.140625 707.71875 636.015625 C 712.320312 629.992188 712.996094 621.875 709.480469 615.246094 L 675.789062 551.726562 C 672.8125 546.382812 672.609375 539.886719 675.113281 534.339844 C 679.644531 524.800781 683.707031 515.0625 687.222656 505.117188 C 689.253906 499.300781 693.917969 494.835938 699.804688 493.074219 L 768.535156 471.902344 C 775.707031 469.667969 780.980469 463.515625 781.996094 456.074219 C 786.527344 422.183594 786.527344 387.953125 781.996094 354.0625 C 780.980469 346.621094 775.707031 340.394531 768.535156 338.230469 L 699.804688 317.058594 C 693.917969 315.300781 689.253906 310.835938 687.222656 305.015625 C 683.707031 295.074219 679.644531 285.332031 675.113281 275.792969 C 672.609375 270.246094 672.8125 263.753906 675.789062 258.40625 L 709.480469 194.886719 C 712.996094 188.191406 712.320312 180.140625 707.71875 174.121094 C 687.019531 146.992188 662.800781 122.707031 635.609375 102.074219 C 629.65625 97.476562 621.539062 96.800781 614.839844 100.316406 L 551.320312 134.003906 C 545.90625 136.914062 539.480469 137.050781 533.933594 134.410156 C 524.464844 129.878906 514.65625 125.820312 504.710938 122.300781 C 498.960938 120.273438 494.496094 115.605469 492.667969 109.71875 L 471.5625 41.058594 C 469.332031 33.820312 463.109375 28.542969 455.667969 27.527344 C 443.085938 25.835938 430.433594 24.753906 417.71875 24.347656 " fill-opacity="1" fill-rule="nonzero"/></g></svg>