<svg xmlns="http://www.w3.org/2000/svg" xmlns:xlink="http://www.w3.org/1999/xlink" width="1080" zoomAndPan="magnify" viewBox="0 0 810 809.999993" height="1080" preserveAspectRatio="xMidYMid meet" version="1.0"><defs><clipPath id="d9c126cb8b"><path d="M 10.378906 139 L 799.378906 139 L 799.378906 719.539062 L 10.378906 719.539062 Z M 10.378906 139 " clip-rule="nonzero"/></clipPath><clipPath id="db5851dabb"><path d="M 158 90.289062 L 282 90.289062 L 282 498 L 158 498 Z M 158 90.289062 " clip-rule="nonzero"/></clipPath></defs><g clip-path="url(#d9c126cb8b)"><path fill="#ff1616" d="M 751.519531 201.523438 L 727.472656 201.523438 C 726.855469 201.523438 726.242188 201.523438 725.625 201.523438 L 725.625 157.128906 C 725.625 150.964844 721.308594 146.03125 715.140625 144.796875 C 566.542969 122.601562 432.742188 173.777344 404.996094 184.875 C 392.050781 179.328125 356.285156 165.761719 306.34375 154.664062 L 306.34375 180.558594 C 348.269531 190.425781 379.101562 201.523438 392.664062 207.074219 L 392.664062 599.222656 C 303.875 552.980469 153.429688 549.28125 109.035156 549.28125 L 109.035156 168.226562 C 117.050781 166.996094 125.683594 166.378906 133.699219 165.761719 L 133.699219 145.414062 C 133.699219 144.179688 133.699219 142.332031 133.699219 141.097656 C 120.75 141.714844 107.800781 143.5625 94.851562 145.414062 C 88.6875 146.03125 84.371094 151.578125 84.371094 157.746094 L 84.371094 201.523438 C 83.753906 201.523438 83.136719 201.523438 82.519531 201.523438 L 58.472656 201.523438 C 31.960938 201.523438 10.378906 223.105469 10.378906 249 L 10.378906 605.390625 C 10.378906 631.902344 31.960938 652.867188 58.472656 652.867188 L 284.761719 652.867188 C 302.027344 652.867188 318.675781 660.265625 329.15625 673.832031 L 341.488281 689.246094 C 356.902344 708.359375 380.335938 719.457031 404.996094 719.457031 C 429.660156 719.457031 453.089844 708.359375 468.507812 689.246094 L 480.839844 673.832031 C 491.9375 660.265625 507.96875 652.867188 525.234375 652.867188 L 751.519531 652.867188 C 778.035156 652.867188 799.613281 631.285156 799.613281 605.390625 L 799.613281 249 C 799.613281 223.105469 778.035156 201.523438 751.519531 201.523438 Z M 577.644531 168.226562 C 593.675781 166.378906 609.707031 165.144531 626.96875 165.144531 L 626.96875 221.871094 L 609.089844 210.15625 C 604.773438 207.074219 599.222656 207.074219 595.523438 210.15625 L 577.644531 221.871094 Z M 417.328125 207.074219 C 435.210938 199.671875 486.386719 181.175781 552.980469 171.308594 L 552.980469 244.683594 C 552.980469 249 555.445312 253.316406 559.761719 255.785156 C 564.078125 257.632812 568.394531 257.632812 572.710938 255.167969 L 602.921875 234.820312 L 633.136719 255.167969 C 634.984375 256.398438 637.453125 257.015625 639.917969 257.015625 C 641.769531 257.015625 643.617188 256.398438 645.46875 255.785156 C 649.785156 253.933594 652.25 249.617188 652.25 244.683594 L 652.25 164.527344 C 668.28125 165.144531 684.929688 165.761719 701.578125 168.226562 L 701.578125 549.28125 C 657.183594 549.28125 506.734375 552.980469 417.945312 599.222656 L 417.945312 207.074219 Z M 774.949219 605.390625 C 774.949219 617.722656 764.46875 628.203125 751.519531 628.203125 L 525.234375 628.203125 C 500.570312 628.203125 477.136719 639.300781 461.722656 658.417969 L 449.390625 673.832031 C 438.292969 687.394531 422.261719 694.792969 404.996094 694.792969 C 387.734375 694.792969 371.085938 686.777344 360.601562 673.832031 L 348.269531 658.417969 C 332.855469 639.300781 309.425781 628.203125 284.761719 628.203125 L 58.472656 628.203125 C 45.527344 628.203125 35.042969 617.722656 35.042969 605.390625 L 35.042969 249 C 35.042969 236.667969 45.527344 226.1875 58.472656 226.1875 L 82.519531 226.1875 C 83.136719 226.1875 83.753906 226.1875 84.371094 226.1875 L 84.371094 562.226562 C 84.371094 565.3125 85.605469 569.011719 88.070312 570.859375 C 90.535156 573.328125 93.621094 574.558594 96.703125 574.558594 C 98.550781 574.558594 307.578125 570.859375 397.597656 631.285156 C 398.214844 631.902344 399.449219 632.519531 400.679688 632.519531 C 400.679688 632.519531 401.296875 632.519531 401.296875 632.519531 C 402.53125 632.519531 403.148438 633.136719 404.382812 633.136719 C 405.613281 633.136719 406.847656 633.136719 407.464844 632.519531 C 407.464844 632.519531 408.082031 632.519531 408.082031 632.519531 C 409.3125 631.902344 409.929688 631.902344 411.164062 631.285156 C 501.183594 570.859375 710.210938 574.558594 712.058594 574.558594 C 715.140625 574.558594 718.839844 573.328125 720.691406 570.859375 C 723.15625 568.394531 724.390625 565.3125 724.390625 562.226562 L 724.390625 226.1875 C 725.007812 226.1875 725.625 226.1875 726.242188 226.1875 L 750.289062 226.1875 C 763.234375 226.1875 773.71875 236.667969 773.71875 249 L 773.71875 605.390625 Z M 774.949219 605.390625 " fill-opacity="1" fill-rule="nonzero"/></g><path fill="#ff1616" d="M 645.46875 300.175781 C 588.742188 299.5625 529.546875 307.578125 469.121094 324.226562 C 462.339844 326.074219 458.640625 332.855469 460.492188 339.640625 C 461.722656 345.1875 467.273438 348.886719 472.207031 348.886719 C 473.4375 348.886719 474.671875 348.886719 475.289062 348.273438 C 532.015625 332.242188 590.589844 324.226562 644.234375 324.839844 C 651.015625 324.839844 656.566406 319.292969 656.566406 312.507812 C 657.800781 305.726562 652.25 300.175781 645.46875 300.175781 Z M 645.46875 300.175781 " fill-opacity="1" fill-rule="nonzero"/><path fill="#ff1616" d="M 645.46875 349.503906 C 588.742188 348.886719 529.546875 356.902344 469.121094 373.550781 C 462.339844 375.402344 458.640625 382.183594 460.492188 388.964844 C 461.722656 394.515625 467.273438 398.214844 472.207031 398.214844 C 473.4375 398.214844 474.671875 398.214844 475.289062 397.597656 C 532.015625 381.566406 590.589844 373.550781 644.234375 374.167969 C 651.015625 374.167969 656.566406 368.621094 656.566406 361.835938 C 657.800781 355.054688 652.25 349.503906 645.46875 349.503906 Z M 645.46875 349.503906 " fill-opacity="1" fill-rule="nonzero"/><path fill="#ff1616" d="M 645.46875 398.832031 C 588.742188 398.214844 529.546875 406.230469 469.121094 422.878906 C 462.339844 424.730469 458.640625 431.511719 460.492188 438.292969 C 461.722656 443.84375 467.273438 447.542969 472.207031 447.542969 C 473.4375 447.542969 474.671875 447.542969 475.289062 446.925781 C 532.015625 430.894531 590.589844 422.878906 644.234375 423.496094 C 651.015625 423.496094 656.566406 417.945312 656.566406 411.164062 C 657.800781 404.382812 652.25 398.832031 645.46875 398.832031 Z M 645.46875 398.832031 " fill-opacity="1" fill-rule="nonzero"/><path fill="#ff1616" d="M 645.46875 448.160156 C 588.742188 447.542969 529.546875 455.558594 469.121094 472.207031 C 462.339844 474.054688 458.640625 480.839844 460.492188 487.621094 C 461.722656 493.171875 467.273438 496.871094 472.207031 496.871094 C 473.4375 496.871094 474.671875 496.871094 475.289062 496.253906 C 532.015625 480.222656 590.589844 472.207031 644.234375 472.824219 C 651.015625 472.824219 656.566406 467.273438 656.566406 460.492188 C 657.800781 453.707031 652.25 448.160156 645.46875 448.160156 Z M 645.46875 448.160156 " fill-opacity="1" fill-rule="nonzero"/><g clip-path="url(#db5851dabb)"><path fill="#ff1616" d="M 170.695312 244.683594 C 177.476562 244.683594 183.027344 239.136719 183.027344 232.351562 L 183.027344 146.648438 C 183.640625 146.648438 184.257812 146.03125 184.875 146.03125 L 195.355469 146.03125 L 195.355469 392.050781 C 195.355469 409.929688 199.058594 427.195312 206.457031 443.84375 L 226.804688 490.085938 C 228.652344 494.402344 232.96875 497.484375 237.902344 497.484375 L 239.136719 497.484375 C 244.066406 497.484375 248.382812 494.402344 250.234375 490.085938 L 270.582031 443.84375 C 277.980469 427.195312 281.679688 409.929688 281.679688 392.050781 L 281.679688 127.53125 C 281.679688 107.183594 265.03125 90.539062 244.683594 90.539062 L 232.351562 90.539062 C 213.855469 90.539062 199.058594 104.101562 195.972656 121.367188 L 184.875 121.367188 C 170.078125 121.367188 158.363281 132.464844 158.363281 145.414062 L 158.363281 232.351562 C 158.363281 239.136719 163.910156 244.683594 170.695312 244.683594 Z M 220.019531 127.53125 C 220.019531 120.75 225.570312 115.199219 232.351562 115.199219 L 244.683594 115.199219 C 251.46875 115.199219 257.015625 120.75 257.015625 127.53125 L 257.015625 152.195312 L 220.019531 152.195312 Z M 220.019531 176.859375 L 257.015625 176.859375 L 257.015625 337.171875 L 220.019531 337.171875 Z M 220.019531 361.835938 L 257.015625 361.835938 L 257.015625 392.050781 C 257.015625 406.230469 253.933594 420.414062 247.765625 433.976562 L 238.519531 455.558594 L 229.269531 433.976562 C 223.105469 420.414062 220.019531 406.230469 220.019531 392.050781 Z M 220.019531 361.835938 " fill-opacity="1" fill-rule="nonzero"/></g></svg>