<svg xmlns="http://www.w3.org/2000/svg" xmlns:xlink="http://www.w3.org/1999/xlink" width="1080" zoomAndPan="magnify" viewBox="0 0 810 809.999993" height="1080" preserveAspectRatio="xMidYMid meet" version="1.0"><defs><clipPath id="1f0630f4ef"><path d="M 18.664062 18.664062 L 791.164062 18.664062 L 791.164062 791.164062 L 18.664062 791.164062 Z M 18.664062 18.664062 " clip-rule="nonzero"/></clipPath></defs><g clip-path="url(#1f0630f4ef)"><path fill="#e8e8e8" d="M 404.992188 518.890625 C 305.734375 518.890625 224.980469 438.136719 224.980469 338.882812 C 224.980469 239.625 305.734375 158.871094 404.992188 158.871094 C 504.25 158.871094 585 239.625 585 338.882812 C 585 438.136719 504.25 518.890625 404.992188 518.890625 Z M 404.992188 183.664062 C 319.402344 183.664062 249.773438 253.292969 249.773438 338.882812 C 249.773438 424.46875 319.402344 494.101562 404.992188 494.101562 C 490.578125 494.101562 560.210938 424.46875 560.210938 338.882812 C 560.210938 253.292969 490.578125 183.664062 404.992188 183.664062 Z M 678.164062 131.816406 C 605.199219 58.851562 508.183594 18.664062 404.992188 18.664062 C 301.800781 18.664062 204.785156 58.851562 131.816406 131.816406 C 58.851562 204.785156 18.664062 301.800781 18.664062 404.992188 C 18.664062 508.183594 58.851562 605.199219 131.816406 678.164062 C 204.785156 751.132812 301.800781 791.316406 404.992188 791.316406 C 508.183594 791.316406 605.199219 751.132812 678.164062 678.164062 C 751.132812 605.199219 791.316406 508.183594 791.316406 404.992188 C 791.316406 301.800781 751.132812 204.785156 678.164062 131.816406 Z M 149.347656 149.347656 C 217.632812 81.0625 308.421875 43.457031 404.992188 43.457031 C 501.558594 43.457031 592.351562 81.0625 660.632812 149.347656 C 728.917969 217.632812 766.527344 308.421875 766.527344 404.992188 C 766.527344 485.269531 740.515625 561.539062 692.519531 624.21875 C 654.320312 570.8125 593.328125 539.257812 527.089844 539.257812 L 282.894531 539.257812 C 216.65625 539.257812 155.660156 570.8125 117.464844 624.21875 C 69.46875 561.539062 43.457031 485.269531 43.457031 404.992188 C 43.457031 308.421875 81.0625 217.632812 149.347656 149.347656 Z M 404.992188 766.527344 C 308.421875 766.527344 217.632812 728.917969 149.347656 660.632812 C 143.988281 655.273438 138.839844 649.757812 133.859375 644.128906 C 167.070312 593.921875 222.5 564.046875 282.894531 564.046875 L 527.089844 564.046875 C 587.484375 564.046875 642.910156 593.921875 676.125 644.128906 C 671.144531 649.757812 665.996094 655.273438 660.632812 660.632812 C 592.351562 728.917969 501.558594 766.527344 404.992188 766.527344 Z M 404.992188 766.527344 " fill-opacity="1" fill-rule="nonzero"/></g></svg>