<svg xmlns="http://www.w3.org/2000/svg" xmlns:xlink="http://www.w3.org/1999/xlink" width="1080" zoomAndPan="magnify" viewBox="0 0 810 809.999993" height="1080" preserveAspectRatio="xMidYMid meet" version="1.0"><defs><clipPath id="ef5ed69c86"><path d="M 239 14.25 L 571 14.25 L 571 346 L 239 346 Z M 239 14.25 " clip-rule="nonzero"/></clipPath><clipPath id="d4f03a1303"><path d="M 116.507812 365 L 693.257812 365 L 693.257812 791.25 L 116.507812 791.25 Z M 116.507812 365 " clip-rule="nonzero"/></clipPath></defs><g clip-path="url(#ef5ed69c86)"><path fill="#ffffff" d="M 570.9375 180.191406 C 570.9375 88.699219 496.492188 14.25 404.996094 14.25 C 313.5 14.25 239.054688 88.699219 239.054688 180.191406 C 239.054688 271.433594 313.5 345.882812 404.996094 345.882812 C 496.492188 345.882812 570.9375 271.433594 570.9375 180.191406 Z M 570.9375 180.191406 " fill-opacity="1" fill-rule="nonzero"/></g><g clip-path="url(#d4f03a1303)"><path fill="#ffffff" d="M 116.726562 653.453125 L 116.726562 703.585938 C 116.726562 751.964844 156.082031 791.320312 204.460938 791.320312 L 605.53125 791.320312 C 653.910156 791.320312 693.265625 751.964844 693.265625 703.585938 L 693.265625 653.453125 C 693.265625 494.527344 563.917969 365.183594 404.996094 365.183594 C 246.070312 365.183594 116.726562 494.527344 116.726562 653.453125 Z M 116.726562 653.453125 " fill-opacity="1" fill-rule="nonzero"/></g></svg>