<svg xmlns="http://www.w3.org/2000/svg" xmlns:xlink="http://www.w3.org/1999/xlink" width="1080" zoomAndPan="magnify" viewBox="0 0 810 809.999993" height="1080" preserveAspectRatio="xMidYMid meet" version="1.0"><defs><clipPath id="dcda6f81ee"><path d="M 8.683594 20.367188 L 809 20.367188 L 809 789 L 8.683594 789 Z M 8.683594 20.367188 " clip-rule="nonzero"/></clipPath></defs><g clip-path="url(#dcda6f81ee)"><path fill="#ffffff" d="M 805.300781 767.261719 L 604.78125 566.742188 C 651.414062 509.128906 679.394531 435.828125 679.394531 356.105469 C 679.394531 171.1875 528.957031 20.75 344.039062 20.75 C 159.125 20.75 8.683594 171.1875 8.683594 356.105469 C 8.683594 541.019531 159.125 691.460938 344.039062 691.460938 C 440.46875 691.460938 527.503906 650.535156 588.738281 585.160156 L 788.070312 784.492188 C 792.796875 789.21875 800.574219 789.21875 805.300781 784.492188 C 810.027344 779.765625 810.027344 771.988281 805.300781 767.261719 Z M 344.039062 667.09375 C 172.558594 667.09375 33.050781 527.585938 33.050781 356.105469 C 33.050781 184.625 172.558594 45.117188 344.039062 45.117188 C 515.519531 45.117188 655.027344 184.625 655.027344 356.105469 C 655.027344 527.585938 515.519531 667.09375 344.039062 667.09375 Z M 344.039062 667.09375 " fill-opacity="1" fill-rule="nonzero"/></g></svg>